<?xml version="1.0" standalone="no"?>
<!DOCTYPE svg PUBLIC "-//W3C//DTD SVG 20010904//EN"
 "http://www.w3.org/TR/2001/REC-SVG-20010904/DTD/svg10.dtd">
<svg version="1.0" xmlns="http://www.w3.org/2000/svg"
 width="1000.000000pt" height="1000.000000pt" viewBox="0 0 1000.000000 1000.000000"
 preserveAspectRatio="xMidYMid meet">
<metadata>
Created by potrace 1.11, written by Peter Selinger 2001-2013
</metadata>
<g transform="translate(0.000000,1000.000000) scale(0.100000,-0.100000)"
fill="#000000" stroke="none">
<path d="M7315 9894 c-22 -8 -52 -16 -66 -19 -39 -7 -119 -45 -119 -55 0 -6
-7 -10 -15 -10 -14 0 -173 -120 -223 -168 -13 -13 -27 -21 -30 -18 -3 3 -2 6
2 6 3 0 0 13 -8 29 -21 39 -87 71 -181 87 -50 8 -215 12 -215 4 0 -3 -12 -6
-27 -6 -45 -2 -73 -8 -73 -14 0 -3 -9 -6 -19 -7 -11 -1 -33 -13 -49 -27 l-29
-26 4 -145 c1 -80 4 -302 7 -494 2 -192 6 -353 9 -358 3 -5 2 -15 -3 -23 -5
-8 -5 -21 1 -31 6 -11 5 -20 -1 -24 -5 -3 -7 -11 -5 -18 10 -30 12 -77 4 -77
-6 0 -7 -5 -3 -11 6 -10 8 -118 17 -880 2 -151 6 -280 10 -286 4 -6 3 -13 -3
-15 -7 -2 -7 -14 -1 -36 5 -18 6 -30 2 -27 -8 4 -7 -26 3 -117 1 -16 -1 -28
-6 -28 -5 0 -6 -5 -2 -11 3 -6 8 -167 11 -357 2 -191 5 -440 7 -553 l2 -206
-125 0 c-118 0 -241 -7 -286 -16 -11 -3 -46 -8 -77 -11 -32 -4 -60 -12 -64
-17 -3 -5 -9 -7 -13 -5 -4 3 -41 -4 -82 -15 -41 -11 -86 -21 -101 -23 -14 -3
-35 -9 -47 -15 -11 -6 -24 -10 -28 -10 -4 1 -17 -2 -28 -6 -41 -17 -110 -43
-117 -44 -16 -3 -104 -42 -139 -61 -20 -11 -39 -17 -43 -13 -3 3 -6 2 -6 -4 0
-6 -24 -21 -52 -33 -29 -12 -57 -29 -61 -36 -4 -8 -14 -14 -21 -14 -7 0 -26
-11 -42 -25 -16 -14 -35 -25 -41 -25 -7 0 -13 -4 -13 -10 0 -5 -13 -16 -29
-25 -16 -8 -35 -20 -43 -27 -7 -7 -29 -24 -48 -38 -19 -13 -39 -28 -45 -32 -5
-5 -27 -22 -49 -38 -21 -16 -83 -73 -138 -126 -55 -52 -102 -93 -106 -90 -3 3
-10 2 -16 -2 -6 -5 -33 -17 -61 -27 -27 -10 -56 -23 -64 -28 -7 -6 -20 -12
-28 -13 -8 -2 -32 -14 -54 -28 -21 -15 -39 -23 -39 -19 0 5 -4 4 -8 -2 -4 -5
-38 -26 -77 -45 -38 -19 -72 -38 -73 -43 -2 -4 -8 -5 -13 -1 -5 3 -9 0 -9 -5
0 -6 -7 -11 -15 -11 -8 0 -15 -4 -15 -10 0 -5 -3 -9 -7 -8 -5 1 -19 -3 -33 -9
-14 -6 -28 -11 -33 -12 -4 0 -13 -5 -20 -11 -6 -6 -75 -52 -152 -102 -77 -51
-146 -98 -153 -105 -7 -7 -17 -13 -22 -13 -5 0 -15 -6 -22 -13 -11 -10 -93
-67 -149 -102 -69 -44 -135 -90 -137 -97 -2 -4 -10 -8 -17 -8 -8 0 -21 -10
-29 -22 -9 -12 -16 -19 -16 -15 0 4 -15 -7 -33 -25 -19 -18 -58 -53 -87 -78
-29 -25 -70 -61 -93 -80 -57 -50 -77 -67 -120 -103 -22 -18 -46 -40 -55 -51
-10 -10 -26 -28 -37 -40 -11 -12 -45 -51 -75 -86 -30 -36 -57 -67 -60 -70 -3
-3 -30 -34 -60 -70 -30 -35 -62 -71 -70 -80 -8 -8 -27 -30 -41 -48 l-26 -34
-44 15 c-31 11 -49 12 -63 5 -10 -6 -15 -13 -10 -17 5 -3 21 -22 36 -42 l27
-37 -39 -55 c-22 -31 -40 -60 -40 -66 0 -6 -4 -11 -8 -11 -5 0 -17 -18 -27
-40 -10 -22 -22 -40 -27 -40 -4 0 -8 -6 -8 -14 0 -7 -9 -25 -21 -40 -11 -14
-17 -26 -12 -26 4 0 3 -4 -3 -8 -6 -4 -21 -26 -34 -50 -16 -28 -27 -39 -34
-32 -5 5 -18 10 -28 10 -10 0 -18 4 -18 8 0 9 -124 56 -156 59 -15 1 -21 -4
-20 -18 1 -23 100 -141 134 -160 22 -13 23 -19 2 -74 -4 -11 -8 -22 -8 -25 -1
-3 -11 -32 -22 -65 -11 -33 -20 -60 -20 -60 2 0 -11 -38 -21 -63 -5 -13 -9
-32 -9 -42 0 -11 -5 -20 -12 -20 -6 0 -9 -3 -5 -6 3 -3 -3 -30 -13 -59 -10
-29 -16 -56 -13 -59 4 -3 2 -6 -4 -6 -5 0 -10 -6 -10 -12 0 -7 -3 -28 -7 -45
-3 -18 -8 -46 -11 -63 -3 -16 -8 -45 -11 -62 -16 -88 -24 -258 -11 -258 4 0 4
-8 -1 -17 -14 -30 -1 -390 18 -504 6 -37 13 -79 15 -91 2 -13 6 -34 9 -48 3
-14 8 -44 10 -65 5 -37 8 -59 21 -132 14 -83 18 -100 31 -124 7 -15 10 -29 7
-33 -4 -3 0 -6 7 -6 7 0 11 -3 7 -6 -3 -3 3 -29 15 -58 11 -28 22 -58 23 -66
2 -8 4 -16 5 -17 2 -2 3 -6 5 -10 1 -5 8 -21 15 -38 8 -16 15 -34 15 -40 3
-16 24 -68 38 -92 11 -19 107 -132 150 -175 9 -10 17 -20 17 -22 0 -2 14 -18
30 -36 17 -18 49 -54 72 -81 23 -27 45 -49 49 -49 4 0 37 -18 73 -40 36 -22
70 -40 76 -40 5 0 10 -4 10 -9 0 -5 8 -11 18 -15 18 -6 43 -20 129 -73 29 -18
53 -29 53 -25 0 4 4 2 8 -4 10 -16 84 -52 113 -56 13 -2 29 -6 34 -10 10 -6
42 -13 100 -24 16 -3 34 -9 41 -15 6 -5 13 -7 16 -4 2 3 30 -4 61 -14 30 -11
58 -17 61 -14 3 3 11 1 19 -5 7 -6 24 -13 37 -16 14 -2 45 -9 70 -16 83 -21
118 -27 144 -24 14 1 26 -2 26 -7 0 -6 7 -6 19 0 10 6 21 8 24 5 3 -3 54 -8
114 -10 235 -10 261 -11 272 -18 6 -4 11 -2 11 4 0 7 6 8 18 2 17 -9 166 -7
237 2 22 3 60 8 85 11 25 3 59 8 75 10 17 3 55 7 86 10 31 2 72 7 91 10 19 3
52 8 74 10 66 8 148 17 162 18 6 0 12 4 12 9 0 5 7 5 17 0 11 -6 28 -5 50 4
18 8 35 14 38 14 3 0 6 0 8 1 4 1 32 8 55 13 12 3 26 7 30 10 5 3 23 8 40 11
18 3 51 12 75 19 36 12 77 23 112 31 6 2 37 10 70 19 33 10 65 18 70 19 6 2
16 6 23 10 6 5 12 6 12 3 0 -3 18 1 40 9 22 8 40 13 40 11 0 -7 114 31 173 57
31 14 57 23 57 20 0 -3 8 2 19 11 10 9 28 18 40 19 11 1 21 5 21 9 0 4 3 7 8
6 4 -1 30 8 57 21 28 12 73 32 100 43 28 11 61 25 75 31 14 5 28 10 33 9 4 -1
7 3 7 10 0 6 3 9 6 6 3 -4 35 7 72 24 77 35 105 46 112 44 3 0 19 9 37 22 17
12 34 22 38 22 3 0 30 16 60 35 30 19 55 32 55 29 0 -2 6 0 13 6 21 18 158
100 168 100 5 0 9 4 9 9 0 8 37 24 53 22 4 -1 7 3 7 9 0 5 15 17 33 25 38 18
120 65 127 74 3 3 25 17 50 30 25 13 50 29 55 35 6 6 37 31 70 56 33 25 74 57
90 72 17 16 34 28 39 28 5 0 17 10 27 22 11 11 19 18 19 15 0 -3 10 4 23 16
32 30 66 57 72 57 3 0 22 17 43 37 20 21 39 36 40 34 14 -12 200 172 505 502
27 29 69 84 95 122 25 39 49 72 54 73 4 2 8 9 8 16 0 7 8 21 18 32 9 10 23 31
31 47 8 15 18 27 23 27 4 0 8 4 8 10 0 11 62 103 73 108 4 2 7 8 7 14 0 5 13
28 29 51 16 23 29 44 29 47 1 6 19 57 29 80 3 8 7 17 8 20 1 3 9 22 18 44 9
21 17 44 17 50 0 7 5 17 12 24 6 6 13 17 14 24 1 7 8 27 15 43 7 17 12 33 11
38 -1 4 3 7 10 7 6 0 9 3 5 6 -3 4 1 20 9 36 9 17 18 40 20 52 2 11 6 32 9 46
3 14 7 41 10 60 12 85 24 164 30 200 3 14 7 48 10 75 3 28 8 57 10 65 5 19 19
127 19 158 1 12 3 22 6 22 3 0 6 15 7 33 1 35 11 122 13 122 4 0 9 53 10 100
0 28 1 73 2 100 2 73 0 115 -6 160 -10 65 -13 87 -20 150 -4 33 -9 71 -11 85
-2 14 -7 43 -9 65 -3 22 -8 51 -11 65 -3 14 -8 43 -10 65 -5 43 -55 165 -67
165 -5 0 -8 7 -8 15 0 18 -20 57 -35 67 -5 4 -7 8 -3 8 21 0 -62 125 -137 202
-47 50 -85 93 -85 97 0 4 -11 14 -25 21 -14 7 -23 15 -21 17 7 7 -172 180
-203 197 -17 9 -44 23 -60 31 -16 9 -34 22 -41 30 -7 8 -16 12 -21 9 -5 -3 -9
-1 -9 4 0 5 -13 15 -29 22 -16 6 -44 23 -62 36 -18 13 -41 24 -51 24 -10 0
-18 4 -18 8 0 4 -21 14 -47 21 -27 8 -52 16 -58 20 -5 3 -16 6 -23 7 -8 2 -21
6 -30 10 -9 4 -20 8 -24 8 -3 1 -46 39 -95 86 -80 78 -178 150 -203 150 -6 0
-10 4 -10 8 0 4 -12 13 -27 19 -30 13 -85 44 -93 54 -9 11 -162 83 -182 86
-11 2 -29 9 -41 15 -12 7 -26 11 -31 10 -4 -2 -13 1 -20 6 -6 5 -27 12 -46 16
-35 6 -64 12 -110 23 -14 3 -33 5 -42 5 -16 -1 -22 9 -20 29 1 3 3 39 6 80 3
41 6 74 6 74 1 0 9 89 14 165 2 25 5 45 6 45 1 0 3 23 5 50 2 28 6 82 10 120
3 39 9 93 11 120 3 28 7 75 10 105 3 30 7 80 9 110 2 30 6 73 9 95 3 22 8 76
11 120 3 44 8 98 11 120 3 22 7 67 9 100 3 33 7 85 11 115 3 30 8 80 10 110
11 125 14 158 20 220 3 36 7 83 9 105 2 22 4 40 5 40 0 0 3 29 6 65 5 72 13
162 17 200 4 29 20 29 70 0 18 -10 48 -21 67 -24 19 -3 56 -12 81 -19 54 -16
374 -14 374 3 0 1 11 3 25 6 57 10 206 58 212 68 4 6 8 8 8 4 0 -4 45 16 101
43 115 57 281 166 351 231 26 23 59 54 75 68 36 33 152 163 153 172 1 4 14 21
31 39 16 17 29 37 29 45 0 8 4 14 9 14 5 0 12 8 15 18 4 10 14 27 24 38 16 17
72 127 110 214 8 19 16 50 17 68 2 26 -1 32 -17 32 -18 0 -156 -67 -168 -81
-6 -7 -53 -23 -58 -20 -2 2 -15 -5 -29 -15 -26 -17 -27 -16 -50 12 -12 16 -22
33 -21 39 1 5 -4 22 -10 38 -13 31 -20 63 -28 122 -6 45 -12 80 -14 80 -2 0
-6 19 -13 60 -8 45 -38 120 -60 150 -23 31 -57 87 -57 94 0 11 -49 61 -90 91
-18 14 -46 35 -61 48 -15 12 -32 22 -38 22 -6 0 -11 5 -11 10 0 6 -7 10 -15
10 -8 0 -23 4 -33 9 -26 13 -86 31 -105 31 -9 0 -17 5 -17 12 0 6 -2 9 -6 6
-3 -3 -22 -2 -42 3 -20 6 -48 12 -62 15 -14 3 -32 7 -40 9 -44 13 -79 12 -115
-1z"/>
</g>
</svg>
